<svg xmlns="http://www.w3.org/2000/svg" viewBox="0 0 160 64" role="img" aria-labelledby="title desc">
  <title>MYSTIC HOST logo</title>
  <desc>A glowing cyan cloud containing the handwritten letters mys.</desc>
  <defs>
    <linearGradient id="g" x1="0" y1="0" x2="1" y2="1">
      <stop offset="0" stop-color="#8fffe0"/><stop offset="1" stop-color="#5bc9ff"/>
    </linearGradient>
    <filter id="glow"><feGaussianBlur stdDeviation="2.5" result="b"/><feMerge><feMergeNode in="b"/><feMergeNode in="SourceGraphic"/></feMerge></filter>
  </defs>
  <path d="M22 45h98c11 0 18-7 18-15 0-8-7-14-16-14-2-10-11-16-21-16-9 0-17 5-20 13-3-3-8-5-13-5-10 0-18 7-19 16-2-1-4-1-7-1-11 0-19 7-19 16 0 3 0 4 0 6Z" fill="none" stroke="url(#g)" stroke-width="3" stroke-linecap="round" stroke-linejoin="round" filter="url(#glow)"/>
  <text x="39" y="39" fill="#eafff9" font-family="cursive" font-size="26" font-style="italic" font-weight="700" letter-spacing="-2">mys</text>
</svg>
